<?xml version="1.0" encoding="UTF-8"?>
<svg version="1.1" xmlns="http://www.w3.org/2000/svg" width="213" height="205">
<path d="M0 0 C2.47358408 1.25716273 4.77285081 2.54688545 7.125 4 C7.83003662 4.42571289 8.53507324 4.85142578 9.26147461 5.29003906 C10.88917963 6.27458882 12.51422902 7.26353673 14.13720703 8.25585938 C16.82005204 9.89036771 19.51145683 11.50995791 22.2064209 13.12438965 C24.70333165 14.62075882 27.19747883 16.12169357 29.69110107 17.62353516 C30.92635922 18.36708313 32.16222809 19.10961757 33.39874268 19.85107422 C38.88552582 23.14548452 44.38027652 26.44719158 49.65234375 30.078125 C50.23878662 30.4793457 50.82522949 30.88056641 51.42944336 31.29394531 C56.02902539 36.29035123 56.45890839 42.0450291 56.43359375 48.49609375 C56.4388356 49.28846939 56.44407745 50.08084503 56.44947815 50.89723206 C56.45586677 52.56371902 56.45460255 54.23025127 56.44604492 55.89672852 C56.43753389 58.42742257 56.46633917 60.95585634 56.49804688 63.48632812 C56.49965934 65.11458267 56.4990805 66.74284115 56.49609375 68.37109375 C56.50732773 69.11717392 56.51856171 69.86325409 56.53013611 70.63194275 C56.44595575 77.07108477 54.43451858 82.05238937 50.32958984 87.02246094 C44.21212529 92.1514693 37.47617253 96.19552 30.625 100.25 C29.36839523 101.00176694 28.1122961 101.75437968 26.85668945 102.5078125 C24.37500129 103.9961397 21.89126287 105.48094071 19.40576172 106.96289062 C14.97993404 109.61013838 10.58139809 112.30022378 6.1875 115 C3.45958343 116.66871747 0.73012656 118.33490098 -2 120 C-2.7105957 120.43344727 -3.42119141 120.86689453 -4.15332031 121.31347656 C-6.24592489 122.58752288 -8.34121611 123.85701876 -10.4375 125.125 C-11.05923096 125.50398438 -11.68096191 125.88296875 -12.3215332 126.2734375 C-17.15444635 129.18609127 -21.31595964 131.03346188 -27 130 C-36.53328784 126.24402795 -45.29268556 120.35285724 -54 115 C-52.55712431 111.39062387 -50.90288726 109.99299169 -47.59765625 108.01171875 C-46.26057617 107.19864258 -46.26057617 107.19864258 -44.89648438 106.36914062 C-43.96126953 105.81419922 -43.02605469 105.25925781 -42.0625 104.6875 C-40.24042843 103.58799654 -38.41881506 102.48773339 -36.59765625 101.38671875 C-35.67484863 100.83201904 -34.75204102 100.27731934 -33.80126953 99.70581055 C-31.00909906 98.0055408 -28.24958258 96.26212512 -25.49609375 94.5 C-20.04989301 91.01526249 -14.53380526 87.65579075 -9 84.3125 C0.71476437 78.42277054 10.34354994 72.40907594 19.92919922 66.31201172 C23.27589237 64.19162396 26.63720771 62.09473346 30 60 C25.2943159 55.89989972 19.99797592 52.93507209 14.625 49.8125 C12.62609633 48.640976 10.62739863 47.46910049 8.62890625 46.296875 C7.65840332 45.72904297 6.68790039 45.16121094 5.68798828 44.57617188 C1.13566754 41.90680015 -3.39101474 39.19635909 -7.90625 36.46484375 C-11.26684072 34.43231256 -14.64834235 32.43654817 -18.03125 30.44140625 C-20.16686928 29.16961101 -22.30228575 27.89747513 -24.4375 26.625 C-25.47640381 26.0172876 -26.51530762 25.4095752 -27.58569336 24.78344727 C-28.54612549 24.20780029 -29.50655762 23.63215332 -30.49609375 23.0390625 C-31.36419678 22.52553223 -32.2322998 22.01200195 -33.12670898 21.48291016 C-33.74489502 20.9935498 -34.36308105 20.50418945 -35 20 C-35 19.01 -35 18.02 -35 17 C-33.36694336 15.63720703 -33.36694336 15.63720703 -31.08984375 14.2578125 C-30.26419922 13.74863281 -29.43855469 13.23945312 -28.58789062 12.71484375 C-27.71326172 12.19019531 -26.83863281 11.66554688 -25.9375 11.125 C-24.23706522 10.08792875 -22.53782708 9.04889263 -20.83984375 8.0078125 C-20.01726074 7.50540039 -19.19467773 7.00298828 -18.34716797 6.48535156 C-16.19043578 5.12051293 -14.12532506 3.68663623 -12.06640625 2.1796875 C-7.57852948 -1.01042108 -5.26193749 -1.31232973 0 0 Z " fill="#D20410" transform="translate(127,65)"/>
<path d="M0 0 C3.28289868 1.6933371 6.40506319 3.53409227 9.54101562 5.48535156 C10.6315625 6.11957031 11.72210938 6.75378906 12.84570312 7.40722656 C18.70074014 10.92905334 18.70074014 10.92905334 20.79101562 12.73535156 C20.79101562 14.05535156 20.79101562 15.37535156 20.79101562 16.73535156 C19.89576172 17.21101563 19.89576172 17.21101563 18.98242188 17.69628906 C13.0555662 20.88428573 7.21766521 24.20070811 1.41601562 27.61035156 C0.75802979 27.99626465 0.10004395 28.38217773 -0.57788086 28.77978516 C-4.82211064 31.28455976 -9.02496136 33.85088338 -13.21679688 36.44238281 C-20.99184557 41.23848132 -28.84784993 45.8946605 -36.70898438 50.54785156 C-38.85287277 51.81827708 -40.99658181 53.08900478 -43.14025879 54.35978699 C-44.45902234 55.14140782 -45.77794121 55.92276668 -47.0970459 56.70381165 C-48.80162527 57.71331272 -50.50533467 58.72428236 -52.20898438 59.73535156 C-53.13775391 60.27506592 -54.06652344 60.81478027 -55.0234375 61.37084961 C-57.30520864 62.68135633 -57.30520864 62.68135633 -59.20898438 64.73535156 C-60.19898437 64.73535156 -61.18898438 64.73535156 -62.20898438 64.73535156 C-62.20898438 65.39535156 -62.20898438 66.05535156 -62.20898438 66.73535156 C-60.55898438 67.06535156 -58.90898438 67.39535156 -57.20898438 67.73535156 C-57.20898438 68.39535156 -57.20898438 69.05535156 -57.20898438 69.73535156 C-56.16411865 70.11687378 -56.16411865 70.11687378 -55.09814453 70.50610352 C-51.8569496 71.88513144 -48.98939006 73.56822833 -45.98242188 75.40332031 C-45.09993271 75.94017204 -45.09993271 75.94017204 -44.19961548 76.48786926 C-42.9563794 77.2451082 -41.71424146 78.00415269 -40.47314453 78.76489258 C-38.6126223 79.90529797 -36.74905375 81.04056843 -34.88476562 82.17480469 C-28.40139212 86.12672273 -21.96044919 90.13474041 -15.57983398 94.25146484 C-12.52642731 96.16255595 -9.38403157 97.8828977 -6.22460938 99.61035156 C-3.41476234 101.17863828 -0.79310209 102.81382813 1.79101562 104.73535156 C1.79101562 105.39535156 1.79101562 106.05535156 1.79101562 106.73535156 C1.25734375 107.01507813 0.72367187 107.29480469 0.17382812 107.58300781 C-4.11742093 109.89196708 -8.17728986 112.34220571 -12.14648438 115.17285156 C-15.54040587 117.57973834 -18.94715489 119.94044422 -22.45898438 122.17285156 C-23.61140625 122.91341797 -23.61140625 122.91341797 -24.78710938 123.66894531 C-27.91494001 125.04619977 -29.80879242 125.16458372 -33.20898438 124.73535156 C-35.7754284 123.55954859 -38.0560755 122.36748616 -40.45898438 120.92285156 C-41.14863281 120.52195312 -41.83828125 120.12105469 -42.54882812 119.70800781 C-48.57680985 116.17996106 -54.52564308 112.51521144 -60.46435547 108.83935547 C-66.23651837 105.27945877 -72.10459793 101.92744509 -78.08398438 98.72753906 C-81.64725117 96.78190594 -84.6005926 94.87459694 -87.20898438 91.73535156 C-87.20898438 91.07535156 -87.20898438 90.41535156 -87.20898438 89.73535156 C-87.86898437 89.40535156 -88.52898437 89.07535156 -89.20898438 88.73535156 C-90.13048618 84.07513338 -90.32805291 79.55316804 -90.30664062 74.81347656 C-90.30341797 73.54117188 -90.30019531 72.26886719 -90.296875 70.95800781 C-90.28849609 69.64703125 -90.28011719 68.33605469 -90.27148438 66.98535156 C-90.26645956 65.64550948 -90.26189839 64.30566558 -90.2578125 62.96582031 C-90.24910238 60.51952209 -90.23833774 58.07322969 -90.22485352 55.62695312 C-90.21407591 53.66310839 -90.20898438 51.69922587 -90.20898438 49.73535156 C-87.00910278 41.02952845 -81.49455257 37.82559783 -73.59960938 33.61425781 C-69.58505923 31.38960502 -65.67928344 29.01619361 -61.77148438 26.61035156 C-54.41532214 22.08443894 -47.0473185 17.58087235 -39.61938477 13.17333984 C-35.56276796 10.76535296 -31.54474173 8.32407938 -27.58789062 5.75488281 C-26.47909546 5.05407593 -26.47909546 5.05407593 -25.34790039 4.33911133 C-23.98166669 3.47439659 -22.62764159 2.58987273 -21.29077148 1.68041992 C-14.56561737 -2.50687477 -7.36289043 -2.90168688 0 0 Z " fill="#012160" transform="translate(115.208984375,19.2646484375)"/>
<path d="M0 0 C2.47358408 1.25716273 4.77285081 2.54688545 7.125 4 C7.83003662 4.42571289 8.53507324 4.85142578 9.26147461 5.29003906 C10.88917963 6.27458882 12.51422902 7.26353673 14.13720703 8.25585938 C16.82005204 9.89036771 19.51145683 11.50995791 22.2064209 13.12438965 C24.70333165 14.62075882 27.19747883 16.12169357 29.69110107 17.62353516 C30.92635922 18.36708313 32.16222809 19.10961757 33.39874268 19.85107422 C40.17954271 23.92244662 46.81499886 28.05010801 53 33 C52.505 33.99 52.505 33.99 52 35 C52.00565066 36.43809264 52.05258256 37.87622075 52.125 39.3125 C52.17053717 43.34579223 51.74113428 45.85277176 49 49 C48.01 49 47.02 49 46 49 C45.79375 49.5775 45.5875 50.155 45.375 50.75 C43.49072675 53.83335623 41.05356767 55.13046877 38 57 C37.01 57.66 36.02 58.32 35 59 C28.52461118 58.91062826 24.17815779 56.08284387 18.8125 52.6875 C17.02364273 51.58430256 15.23457444 50.48144724 13.4453125 49.37890625 C12.53813477 48.81445801 11.63095703 48.25000977 10.69628906 47.66845703 C7.35758266 45.60247373 3.99122164 43.58567842 0.61889648 41.57519531 C-1.83252178 40.1130581 -4.27798906 38.64136132 -6.72265625 37.16796875 C-10.59349654 34.83745133 -14.4798242 32.53450978 -18.37109375 30.23828125 C-20.49757469 28.97165439 -22.62387996 27.70473256 -24.75 26.4375 C-25.76940674 25.84146973 -26.78881348 25.24543945 -27.83911133 24.63134766 C-28.77392334 24.07108887 -29.70873535 23.51083008 -30.671875 22.93359375 C-31.5081543 22.43915771 -32.34443359 21.94472168 -33.20605469 21.43530273 C-33.79805664 20.96165283 -34.39005859 20.48800293 -35 20 C-35 19.01 -35 18.02 -35 17 C-33.36694336 15.63720703 -33.36694336 15.63720703 -31.08984375 14.2578125 C-30.26419922 13.74863281 -29.43855469 13.23945312 -28.58789062 12.71484375 C-27.71326172 12.19019531 -26.83863281 11.66554688 -25.9375 11.125 C-24.23706522 10.08792875 -22.53782708 9.04889263 -20.83984375 8.0078125 C-20.01726074 7.50540039 -19.19467773 7.00298828 -18.34716797 6.48535156 C-16.19043578 5.12051293 -14.12532506 3.68663623 -12.06640625 2.1796875 C-7.57852948 -1.01042108 -5.26193749 -1.31232973 0 0 Z " fill="#023CC3" transform="translate(127,65)"/>
<path d="M0 0 C0 0.66 0 1.32 0 2 C0.69657715 2.25434814 1.3931543 2.50869629 2.11083984 2.77075195 C5.35203477 4.14977988 8.21959432 5.83287677 11.2265625 7.66796875 C12.10905167 8.20482048 12.10905167 8.20482048 13.0093689 8.7525177 C14.25260498 9.50975664 15.49474291 10.26880113 16.73583984 11.02954102 C18.59636208 12.16994641 20.45993062 13.30521687 22.32421875 14.43945312 C28.80759226 18.39137117 35.24853519 22.39938884 41.62915039 26.51611328 C44.68255706 28.42720439 47.8249528 30.14754614 50.984375 31.875 C53.79422203 33.44328672 56.41588228 35.07847657 59 37 C59 37.66 59 38.32 59 39 C58.46632813 39.27972656 57.93265625 39.55945313 57.3828125 39.84765625 C53.09156344 42.15661552 49.03169452 44.60685415 45.0625 47.4375 C41.66857851 49.84438678 38.26182948 52.20509265 34.75 54.4375 C33.98171875 54.93121094 33.2134375 55.42492187 32.421875 55.93359375 C29.29404437 57.31084821 27.40019196 57.42923215 24 57 C21.43371747 55.82427101 19.15228223 54.63296911 16.75 53.1875 C16.07122803 52.79022705 15.39245605 52.3929541 14.69311523 51.98364258 C13.23229702 51.12426945 11.77529541 50.25838226 10.32177734 49.38671875 C7.88947741 47.93398861 5.44001543 46.51339921 2.98828125 45.09375 C1.34545783 44.1265208 -0.29648909 43.15780114 -1.9375 42.1875 C-2.72479492 41.73205811 -3.51208984 41.27661621 -4.32324219 40.80737305 C-5.0505957 40.36949463 -5.77794922 39.93161621 -6.52734375 39.48046875 C-7.17437256 39.09785889 -7.82140137 38.71524902 -8.48803711 38.32104492 C-10.37072812 36.67608431 -10.62728163 35.4302267 -11 33 C-12.65 32.67 -14.3 32.34 -16 32 C-16 30 -16 30 -15 29 C-15.66 29 -16.32 29 -17 29 C-17.33 28.01 -17.66 27.02 -18 26 C-18.66 26.33 -19.32 26.66 -20 27 C-22.01927511 26.39421747 -24.02253397 25.73080266 -26 25 C-25.67 24.01 -25.34 23.02 -25 22 C-25.66 21.67 -26.32 21.34 -27 21 C-26.87417514 14.96040662 -24.95112566 12.07167413 -20.82421875 7.71875 C-18.67182033 5.69079432 -16.66093519 4.29801717 -14 3 C-13.38125 2.6390625 -12.7625 2.278125 -12.125 1.90625 C-7.7061506 -0.57098376 -5.08276888 -1.52483066 0 0 Z M-13 26 C-12.67 26.66 -12.34 27.32 -12 28 C-11.67 27.34 -11.34 26.68 -11 26 C-11.66 26 -12.32 26 -13 26 Z " fill="#012C91" transform="translate(58,87)"/>
<path d="M0 0 C12.85421412 7.11389522 12.85421412 7.11389522 17 12 C16.67 12.33 16.34 12.66 16 13 C16.00585648 14.41726718 16.05469201 15.8344657 16.125 17.25 C16.17030829 21.30832787 15.75881365 23.83247322 13 27 C12.01 27 11.02 27 10 27 C9.690625 27.86625 9.690625 27.86625 9.375 28.75 C7.49072675 31.83335623 5.05356767 33.13046877 2 35 C1.01 35.66 0.02 36.32 -1 37 C-7.63500567 37 -11.79087894 33.86254555 -17 30 C-16.01 29.34 -15.02 28.68 -14 28 C-11 29 -11 29 -9 31 C-6.44539786 31.07272562 -6.44539786 31.07272562 -4 30 C-2.40339294 27.11090151 -2 25.30941204 -2 22 C-0.46875 20.39453125 -0.46875 20.39453125 1.5 18.8125 C2.1496875 18.28269531 2.799375 17.75289062 3.46875 17.20703125 C3.9740625 16.80871094 4.479375 16.41039063 5 16 C4.79375 15.29875 4.5875 14.5975 4.375 13.875 C3.92149643 10.39813928 4.72459723 8.22601877 6 5 C4.68 5 3.36 5 2 5 C1.34 3.35 0.68 1.7 0 0 Z " fill="#032678" transform="translate(163,87)"/>
<path d="M0 0 C0.928125 0.25136719 0.928125 0.25136719 1.875 0.5078125 C8.58294432 2.45607574 14.47793816 5.71653147 20 10 C20 10.66 20 11.32 20 12 C19.46632812 12.27972656 18.93265625 12.55945313 18.3828125 12.84765625 C14.09156344 15.15661552 10.03169452 17.60685415 6.0625 20.4375 C2.66857851 22.84438678 -0.73817052 25.20509265 -4.25 27.4375 C-5.01828125 27.93121094 -5.7865625 28.42492187 -6.578125 28.93359375 C-9.74252715 30.32695147 -11.5548413 30.46465688 -15 30 C-17.87447719 28.77530821 -20.51227852 27.23259853 -23.1875 25.625 C-23.89841797 25.2125 -24.60933594 24.8 -25.34179688 24.375 C-28.28846933 22.65633874 -31.1603834 20.89307773 -34 19 C-34.6875 15.875 -34.6875 15.875 -35 13 C-33.515 13.99 -33.515 13.99 -32 15 C-31.34 14.67 -30.68 14.34 -30 14 C-27.875 14.9375 -27.875 14.9375 -26 16 C-25.67 15.67 -25.34 15.34 -25 15 C-23.33382885 14.95936168 -21.66611905 14.957279 -20 15 C-20.495 15.61875 -20.99 16.2375 -21.5 16.875 C-23.19222773 18.83880904 -23.19222773 18.83880904 -23 21 C-22.34 21 -21.68 21 -21 21 C-21 21.66 -21 22.32 -21 23 C-19.68 22.34 -18.36 21.68 -17 21 C-16.67 22.98 -16.34 24.96 -16 27 C-13.36 27 -10.72 27 -8 27 C-8 26.34 -8 25.68 -8 25 C-8.66 25 -9.32 25 -10 25 C-10 23.68 -10 22.36 -10 21 C-7.6875 20.375 -7.6875 20.375 -5 20 C-4.01 20.66 -3.02 21.32 -2 22 C1.11133621 20.37985297 1.11133621 20.37985297 1.625 18 C1.810625 17.01 1.810625 17.01 2 16 C2.33 15.34 2.66 14.68 3 14 C5.31 14.33 7.62 14.66 10 15 C9.505 13.515 9.505 13.515 9 12 C8.01 11.67 7.02 11.34 6 11 C6 10.34 6 9.68 6 9 C7.32 8.67 8.64 8.34 10 8 C8.31415098 5.96066651 7.40992861 5.08126655 4.7734375 4.55859375 C3.58621094 4.49865234 3.58621094 4.49865234 2.375 4.4375 C-0.0390625 4.30859375 -0.0390625 4.30859375 -2 4 C-2.495 3.01 -2.495 3.01 -3 2 C-4.98 2.99 -4.98 2.99 -7 4 C-7.33 3.01 -7.66 2.02 -8 1 C-3.375 -1.125 -3.375 -1.125 0 0 Z " fill="#1242C2" transform="translate(97,114)"/>
<path d="M0 0 C3 1 3 1 4.16650391 3.04370117 C5.22872454 6.81125525 5.32454217 10.4176278 5.3359375 14.30078125 C5.3425943 15.09598679 5.3492511 15.89119232 5.35610962 16.710495 C5.36620719 18.38892311 5.37092754 20.06739115 5.37060547 21.74584961 C5.37496857 24.29414203 5.41128837 26.84068661 5.44921875 29.38867188 C5.45508984 31.0260358 5.45905728 32.66340788 5.4609375 34.30078125 C5.47530853 35.05313553 5.48967957 35.80548981 5.50448608 36.5806427 C5.4493069 43.07331866 3.41611407 48.22349916 -0.859375 53.13671875 C-12.88413098 63 -12.88413098 63 -17 63 C-17 62.34 -17 61.68 -17 61 C-16.34 61 -15.68 61 -15 61 C-15.33 59.02 -15.66 57.04 -16 55 C-13.525 54.505 -13.525 54.505 -11 54 C-11.33 54.99 -11.66 55.98 -12 57 C-9.525 56.505 -9.525 56.505 -7 56 C-7.12375 55.2575 -7.2475 54.515 -7.375 53.75 C-7.25125 52.8425 -7.1275 51.935 -7 51 C-5.01310269 49.64721885 -3.01254782 48.31431695 -1 47 C-0.08333333 44.58333333 -0.08333333 44.58333333 0 42 C0.16757813 41.24203125 0.33515625 40.4840625 0.5078125 39.703125 C1.03587968 36.80294655 1.0979821 34.13251395 1.0625 31.1875 C1.05347656 30.21167969 1.04445312 29.23585937 1.03515625 28.23046875 C1.02355469 27.49441406 1.01195312 26.75835937 1 26 C1.66 26 2.32 26 3 26 C3 24.35 3 22.7 3 21 C1.68 20.67 0.36 20.34 -1 20 C-1 20.66 -1 21.32 -1 22 C-1.99 22.33 -2.98 22.66 -4 23 C-4 22.01 -4 21.02 -4 20 C-5.093125 20.495 -6.18625 20.99 -7.3125 21.5 C-11 23 -11 23 -14 23 C-12.23205273 21.04595302 -10.66195132 19.79878054 -8.375 18.4375 C-5.88809625 17.22087094 -5.88809625 17.22087094 -5 15 C-4.01 14.67 -3.02 14.34 -2 14 C0.08845462 10.92955679 0.22107559 8.40087249 0.125 4.75 C0.09792969 3.41195312 0.09792969 3.41195312 0.0703125 2.046875 C0.04710937 1.37140625 0.02390625 0.6959375 0 0 Z " fill="#911719" transform="translate(178,99)"/>
<path d="M0 0 C0.66 0.33 1.32 0.66 2 1 C0.75 3 0.75 3 -1 5 C-2.32 5 -3.64 5 -5 5 C-5.33 5.99 -5.66 6.98 -6 8 C-6.66 8 -7.32 8 -8 8 C-7.67 8.99 -7.34 9.98 -7 11 C-9.35968744 13.09749995 -10.54616994 13.96905704 -13.75 14.1875 C-14.4925 14.125625 -15.235 14.06375 -16 14 C-17.21690533 15.76529595 -17.21690533 15.76529595 -18 18 C-17.34 19.32 -16.68 20.64 -16 22 C-12.37 22 -8.74 22 -5 22 C-5 22.66 -5 23.32 -5 24 C-3.68 24.33 -2.36 24.66 -1 25 C-1.66 26.32 -2.32 27.64 -3 29 C-1.02 29.66 0.96 30.32 3 31 C3.33 30.67 3.66 30.34 4 30 C5.52519276 30.08937803 7.04681929 30.24537146 8.5625 30.4375 C9.38878906 30.53933594 10.21507812 30.64117187 11.06640625 30.74609375 C11.70449219 30.82988281 12.34257813 30.91367188 13 31 C10.46620866 33.53379134 8.56676633 33.91558799 5.0625 34.4375 C-5.58820093 34.21514716 -17.11035442 24.46494606 -26 19 C-24.5357178 15.26878452 -22.71532201 13.87857217 -19.31640625 11.8359375 C-18.38892578 11.27132812 -17.46144531 10.70671875 -16.50585938 10.125 C-15.53455078 9.5475 -14.56324219 8.97 -13.5625 8.375 C-11.64705012 7.21628682 -9.73168199 6.0574385 -7.81640625 4.8984375 C-6.96506104 4.38974121 -6.11371582 3.88104492 -5.23657227 3.35693359 C-3.46391398 2.28145769 -1.72516872 1.15011248 0 0 Z " fill="#830A0E" transform="translate(99,161)"/>
<path d="M0 0 C4.56751701 1.76905039 8.59908687 4.16720961 12.75 6.75 C13.84054688 7.38421875 14.93109375 8.0184375 16.0546875 8.671875 C21.90972451 12.19370177 21.90972451 12.19370177 24 14 C24 15.32 24 16.64 24 18 C16.66666667 22 9.33333333 26 2 30 C2 29.34 2 28.68 2 28 C2.66 28 3.32 28 4 28 C4.33 27.01 4.66 26.02 5 25 C8 23 8 23 12 23 C12 22.34 12 21.68 12 21 C14.31 19.68 16.62 18.36 19 17 C18.505 14.525 18.505 14.525 18 12 C15.36 12 12.72 12 10 12 C9.79375 11.21625 9.5875 10.4325 9.375 9.625 C8.19323388 6.69083714 8.19323388 6.69083714 4.875 5.6875 C3.92625 5.460625 2.9775 5.23375 2 5 C2 4.34 2 3.68 2 3 C0.54176788 2.9729957 -0.91660675 2.95360213 -2.375 2.9375 C-3.59316406 2.92009766 -3.59316406 2.92009766 -4.8359375 2.90234375 C-7.04937142 2.85533666 -7.04937142 2.85533666 -9 4 C-11.6723621 4.13415472 -14.32250488 4.04318541 -17 4 C-12.08617189 -1.13718393 -6.86189345 -0.91728122 0 0 Z " fill="#0B1C4B" transform="translate(112,18)"/>
<path d="M0 0 C-0.886875 0.53625 -1.77375 1.0725 -2.6875 1.625 C-7.35357979 4.77626241 -10.52668502 8.03912365 -11.875 13.625 C-11.97903399 16.43391762 -11.94107136 18.38591288 -11 21 C-7.94152152 21.54372951 -5.11227195 22 -2 22 C-2.33 22.99 -2.66 23.98 -3 25 C-1.68 24.67 -0.36 24.34 1 24 C0.67 24.66 0.34 25.32 0 26 C-0.66 26 -1.32 26 -2 26 C-2 26.66 -2 27.32 -2 28 C-0.35 28.33 1.3 28.66 3 29 C3.33 29.99 3.66 30.98 4 32 C-0.29131806 30.41122957 -4.26243075 28.35042765 -8.25 26.125 C-8.88679688 25.78597656 -9.52359375 25.44695312 -10.1796875 25.09765625 C-14.8176434 22.50237454 -14.8176434 22.50237454 -15.796875 19.8046875 C-15.89742187 18.91136719 -15.89742187 18.91136719 -16 18 C-16.66 17.67 -17.32 17.34 -18 17 C-13.92548399 7.0521125 -13.92548399 7.0521125 -10 3 C-9.01 2.67 -8.02 2.34 -7 2 C-6.67 1.34 -6.34 0.68 -6 0 C-2.49056604 -1.24528302 -2.49056604 -1.24528302 0 0 Z M1 22 C1.99 22.495 1.99 22.495 3 23 C2.01 23.495 2.01 23.495 1 24 C1 23.34 1 22.68 1 22 Z " fill="#041B4A" transform="translate(44,91)"/>
<path d="M0 0 C0.33 0.66 0.66 1.32 1 2 C2.98 1.67 4.96 1.34 7 1 C6.01 1.495 6.01 1.495 5 2 C5 2.99 5 3.98 5 5 C2.58618808 6.66561929 0.23371504 8.12923111 -2.3125 9.5625 C-3.68382135 10.35507508 -5.05492306 11.14803035 -6.42578125 11.94140625 C-7.03848877 12.28888916 -7.65119629 12.63637207 -8.2824707 12.99438477 C-9.89150652 13.93647695 -11.44860347 14.96573565 -13 16 C-15.33199388 16.07905064 -17.66832622 16.08798769 -20 16 C-20 14.35 -20 12.7 -20 11 C-18.68 10.34 -17.36 9.68 -16 9 C-16 9.66 -16 10.32 -16 11 C-14.53633658 10.60246179 -13.0791065 10.18118616 -11.625 9.75 C-10.81289062 9.51796875 -10.00078125 9.2859375 -9.1640625 9.046875 C-6.87598385 8.16478688 -6.87598385 8.16478688 -5.7109375 6.078125 C-4.83815616 3.89297946 -4.83815616 3.89297946 -5 1 C-3.35 0.67 -1.7 0.34 0 0 Z " fill="#E00916" transform="translate(143,166)"/>
<path d="M0 0 C1.9631237 1.09562714 3.92036163 2.20180549 5.875 3.3125 C6.96554688 3.92738281 8.05609375 4.54226562 9.1796875 5.17578125 C12 7 12 7 14 10 C13.83934531 13.21309388 13.45678916 14.55843714 11.125 16.8125 C9 18 9 18 6 18 C5.690625 18.8353125 5.690625 18.8353125 5.375 19.6875 C3.44999226 22.92501302 0.96149098 24.68231141 -2 27 C-2.33 25.68 -2.66 24.36 -3 23 C-0.36 20.69 2.28 18.38 5 16 C4.67 14.35 4.34 12.7 4 11 C4.9375 7.6875 4.9375 7.6875 6 5 C4.68 5 3.36 5 2 5 C1.34 3.35 0.68 1.7 0 0 Z " fill="#032B87" transform="translate(163,87)"/>
<path d="M0 0 C1.32 0.33 2.64 0.66 4 1 C3.67 1.66 3.34 2.32 3 3 C3.00565066 4.43809264 3.05258256 5.87622075 3.125 7.3125 C3.17053717 11.34579223 2.74113428 13.85277176 0 17 C-0.99 17 -1.98 17 -3 17 C-3.20625 17.5775 -3.4125 18.155 -3.625 18.75 C-5.50927325 21.83335623 -7.94643233 23.13046877 -11 25 C-11.99 25.66 -12.98 26.32 -14 27 C-16.1875 26.625 -16.1875 26.625 -18 26 C-17.13375 25.67 -16.2675 25.34 -15.375 25 C-8.63872717 21.00813462 -4.95853061 13.58587394 -1 7 C-0.01 7.33 0.98 7.66 2 8 C2 6.68 2 5.36 2 4 C1.34 4 0.68 4 0 4 C0 2.68 0 1.36 0 0 Z " fill="#0F1851" transform="translate(176,97)"/>
<path d="M0 0 C3 1 3 1 4 3 C4.42472094 8.26653961 4.42472094 8.26653961 4 11 C1.9375 13.25 1.9375 13.25 0 15 C0.165 15.66 0.33 16.32 0.5 17 C0.665 17.66 0.83 18.32 1 19 C-0.9375 21.25 -0.9375 21.25 -3 23 C-3.33 22.01 -3.66 21.02 -4 20 C-5.093125 20.495 -6.18625 20.99 -7.3125 21.5 C-11 23 -11 23 -14 23 C-12.23205273 21.04595302 -10.66195132 19.79878054 -8.375 18.4375 C-5.88809625 17.22087094 -5.88809625 17.22087094 -5 15 C-4.01 14.67 -3.02 14.34 -2 14 C0.08845462 10.92955679 0.22107559 8.40087249 0.125 4.75 C0.09792969 3.41195312 0.09792969 3.41195312 0.0703125 2.046875 C0.04710937 1.37140625 0.02390625 0.6959375 0 0 Z " fill="#9F0919" transform="translate(178,99)"/>
<path d="M0 0 C2.31 0 4.62 0 7 0 C7 0.66 7 1.32 7 2 C8.32 2.33 9.64 2.66 11 3 C10.34 4.32 9.68 5.64 9 7 C10.98 7.66 12.96 8.32 15 9 C15.33 8.67 15.66 8.34 16 8 C17.52519276 8.08937803 19.04681929 8.24537146 20.5625 8.4375 C21.38878906 8.53933594 22.21507813 8.64117187 23.06640625 8.74609375 C23.70449219 8.82988281 24.34257813 8.91367188 25 9 C22.30518742 11.69481258 20.45600057 11.96558486 16.6875 12.25 C12.72415901 11.98129892 10.39784469 10.98898226 7 9 C7 8.34 7 7.68 7 7 C6.34 7 5.68 7 5 7 C5 6.34 5 5.68 5 5 C3.68 4.67 2.36 4.34 1 4 C0.67 2.68 0.34 1.36 0 0 Z " fill="#9E050F" transform="translate(87,183)"/>
<path d="M0 0 C2.0625 0.4375 2.0625 0.4375 4 1 C3.40461426 1.35304199 2.80922852 1.70608398 2.19580078 2.06982422 C-0.49630531 3.66847578 -3.18567357 5.27167715 -5.875 6.875 C-6.81214844 7.43058594 -7.74929687 7.98617187 -8.71484375 8.55859375 C-10.05869141 9.36103516 -10.05869141 9.36103516 -11.4296875 10.1796875 C-12.25710449 10.67194824 -13.08452148 11.16420898 -13.93701172 11.67138672 C-16.10714181 12.96605953 -16.10714181 12.96605953 -18 15 C-18.99 15 -19.98 15 -21 15 C-21.33 15.99 -21.66 16.98 -22 18 C-22.99 17.67 -23.98 17.34 -25 17 C-24.01 16.67 -23.02 16.34 -22 16 C-22 15.01 -22 14.02 -22 13 C-21.071875 12.608125 -20.14375 12.21625 -19.1875 11.8125 C-15.71818145 9.83975023 -14.88035075 8.40253946 -13 5 C-12.01 4.67 -11.02 4.34 -10 4 C-9.67 3.67 -9.34 3.34 -9 3 C-6 2 -6 2 -3.375 1.5 C-1.05538548 1.23747474 -1.05538548 1.23747474 0 0 Z " fill="#061B4A" transform="translate(74,69)"/>
<path d="M0 0 C0.4375 2.125 0.4375 2.125 0 5 C-3.94025707 9.60299144 -9.654507 13.22280134 -15 16 C-15.66 16 -16.32 16 -17 16 C-17 15.34 -17 14.68 -17 14 C-16.34 14 -15.68 14 -15 14 C-15.33 12.02 -15.66 10.04 -16 8 C-14.35 7.67 -12.7 7.34 -11 7 C-11.33 7.99 -11.66 8.98 -12 10 C-10.35 9.67 -8.7 9.34 -7 9 C-7.12375 8.2575 -7.2475 7.515 -7.375 6.75 C-7 4 -7 4 -4.0625 1.6875 C-1 0 -1 0 0 0 Z " fill="#AF0A11" transform="translate(178,146)"/>
<path d="M0 0 C0.7115625 0.22558594 1.423125 0.45117188 2.15625 0.68359375 C3.31640625 1.05677734 3.31640625 1.05677734 4.5 1.4375 C5.66015625 1.80681641 5.66015625 1.80681641 6.84375 2.18359375 C9 3 9 3 12 5 C12 5.99 12 6.98 12 8 C12.66 8 13.32 8 14 8 C13.67 9.98 13.34 11.96 13 14 C12.401875 13.690625 11.80375 13.38125 11.1875 13.0625 C8.91043228 11.89790296 8.91043228 11.89790296 6 11 C6 10.34 6 9.68 6 9 C7.32 8.67 8.64 8.34 10 8 C8.31415098 5.96066651 7.40992861 5.08126655 4.7734375 4.55859375 C3.98195313 4.51863281 3.19046875 4.47867188 2.375 4.4375 C-0.0390625 4.30859375 -0.0390625 4.30859375 -2 4 C-2.33 3.34 -2.66 2.68 -3 2 C-4.98 2.99 -4.98 2.99 -7 4 C-7.33 3.01 -7.66 2.02 -8 1 C-3.375 -1.125 -3.375 -1.125 0 0 Z " fill="#0443D1" transform="translate(97,114)"/>
<path d="M0 0 C1.485 0.99 1.485 0.99 3 2 C3.66 1.67 4.32 1.34 5 1 C7.125 1.9375 7.125 1.9375 9 3 C9.33 2.67 9.66 2.34 10 2 C11.66617115 1.95936168 13.33388095 1.957279 15 2 C14.525625 2.556875 14.05125 3.11375 13.5625 3.6875 C11.86622176 6.1979918 11.50398979 8.04945782 11 11 C7.50495521 9.56646076 4.15928811 8.08286967 1 6 C-0.125 2.6875 -0.125 2.6875 0 0 Z " fill="#0937A5" transform="translate(62,127)"/>
<path d="M0 0 C4.75 0.875 4.75 0.875 7 2 C7 2.66 7 3.32 7 4 C8.32 4 9.64 4 11 4 C11 4.66 11 5.32 11 6 C11.66 6 12.32 6 13 6 C12.67 7.32 12.34 8.64 12 10 C11.236875 9.67 10.47375 9.34 9.6875 9 C7.00930865 7.82563314 7.00930865 7.82563314 4 8 C2.33333333 8 0.66666667 8 -1 8 C-0.7525 7.13375 -0.7525 7.13375 -0.5 6.25 C0.14462031 3.73335631 0.14462031 3.73335631 0 0 Z " fill="#0344D7" transform="translate(143,78)"/>
<path d="M0 0 C2.875 1.5625 2.875 1.5625 5 3 C4.01 3.495 4.01 3.495 3 4 C2.39671875 3.68289062 1.7934375 3.36578125 1.171875 3.0390625 C-1.46277002 1.77860283 -2.89041545 1.95447286 -5.75 2.375 C-6.94882813 2.54128906 -6.94882813 2.54128906 -8.171875 2.7109375 C-8.77515625 2.80632812 -9.3784375 2.90171875 -10 3 C-9.67 4.32 -9.34 5.64 -9 7 C-10.32 6.67 -11.64 6.34 -13 6 C-13.33 6.66 -13.66 7.32 -14 8 C-14.66 8 -15.32 8 -16 8 C-16.33 8.66 -16.66 9.32 -17 10 C-18.65 10 -20.3 10 -22 10 C-16.23350573 3.4813543 -8.84319308 -2.12236634 0 0 Z " fill="#113998" transform="translate(127,65)"/>
<path d="M0 0 C2.9375 0.75 2.9375 0.75 6 2 C6.69140625 4.078125 6.69140625 4.078125 7 6 C1.47759424 10.11242982 -2.09296024 11.61669998 -9 11 C-7.35889552 7.71779105 -4.30677012 7.25429211 -1 6 C-0.01 6 0.98 6 2 6 C1.34 5.01 0.68 4.02 0 3 C0 2.01 0 1.02 0 0 Z " fill="#082567" transform="translate(98,48)"/>
<path d="M0 0 C0 0.66 0 1.32 0 2 C-1.62249941 2.83819158 -3.24808497 3.6704116 -4.875 4.5 C-5.77992188 4.9640625 -6.68484375 5.428125 -7.6171875 5.90625 C-10 7 -10 7 -12 7 C-12 7.66 -12 8.32 -12 9 C-13.32 9 -14.64 9 -16 9 C-16 9.66 -16 10.32 -16 11 C-16.99 11 -17.98 11 -19 11 C-19 11.66 -19 12.32 -19 13 C-19.99 13 -20.98 13 -22 13 C-22 13.66 -22 14.32 -22 15 C-25 17 -25 17 -27.1875 16.625 C-28.0846875 16.315625 -28.0846875 16.315625 -29 16 C-25.2560411 13.5116153 -21.50385838 11.03592043 -17.75 8.5625 C-16.68652344 7.85544922 -15.62304688 7.14839844 -14.52734375 6.41992188 C-12.99013672 5.40961914 -12.99013672 5.40961914 -11.421875 4.37890625 C-10.47924805 3.7557251 -9.53662109 3.13254395 -8.56542969 2.49047852 C-5.62092228 0.77976118 -3.38578882 0 0 0 Z " fill="#C11524" transform="translate(164,123)"/>
<path d="M0 0 C1.125 1.6875 1.125 1.6875 2 4 C1.125 6.75 1.125 6.75 0 9 C-2.64 9 -5.28 9 -8 9 C-8.33 7.35 -8.66 5.7 -9 4 C-6.09399739 2.74335022 -4.20395416 2 -1 2 C-0.67 1.34 -0.34 0.68 0 0 Z " fill="#C2020D" transform="translate(103,162)"/>
<path d="M0 0 C0.66 0.33 1.32 0.66 2 1 C0.75 3 0.75 3 -1 5 C-2.32 5 -3.64 5 -5 5 C-5.33 5.99 -5.66 6.98 -6 8 C-6.66 8 -7.32 8 -8 8 C-7.67 8.99 -7.34 9.98 -7 11 C-8.75 12.5625 -8.75 12.5625 -11 14 C-13.25 13.6875 -13.25 13.6875 -15 13 C-15 12.34 -15 11.68 -15 11 C-13.35 10.34 -11.7 9.68 -10 9 C-10 8.01 -10 7.02 -10 6 C-7.8828125 4.359375 -7.8828125 4.359375 -5.125 2.75 C-4.22007813 2.20859375 -3.31515625 1.6671875 -2.3828125 1.109375 C-1.20332031 0.56023437 -1.20332031 0.56023437 0 0 Z " fill="#A4050B" transform="translate(99,161)"/>
<path d="M0 0 C5.33467187 -0.51076646 8.54417633 1.07151375 12.875 3.9375 C13.46796875 4.31068359 14.0609375 4.68386719 14.671875 5.06835938 C16.13994355 6.00704376 17.57367129 6.99903044 19 8 C19 8.33 19 8.66 19 9 C15.33222736 9.20376515 13.16979879 8.84052833 10 7 C7.70496237 5.74143098 5.96536949 4.99340371 3.375 4.5 C1 4 1 4 -1 2 C-0.67 1.34 -0.34 0.68 0 0 Z " fill="#0633A3" transform="translate(82,106)"/>
<path d="M0 0 C2.475 0.495 2.475 0.495 5 1 C5 1.66 5 2.32 5 3 C5.71542969 3.26554687 6.43085937 3.53109375 7.16796875 3.8046875 C10.06904319 5.02914099 12.63015864 6.47983063 15.3125 8.125 C16.19550781 8.66382812 17.07851562 9.20265625 17.98828125 9.7578125 C18.98408203 10.37269531 18.98408203 10.37269531 20 11 C16.71023192 12.09658936 15.28696233 11.79953138 12 11 C12 10.34 12 9.68 12 9 C11.236875 9.020625 10.47375 9.04125 9.6875 9.0625 C7 9 7 9 4 8 C4.33 6.68 4.66 5.36 5 4 C2.525 3.01 2.525 3.01 0 2 C0 1.34 0 0.68 0 0 Z " fill="#0C235F" transform="translate(53,86)"/>
<path d="M0 0 C-0.33 0.99 -0.66 1.98 -1 3 C-2.33333333 3.33333333 -3.66666667 3.66666667 -5 4 C-5.33 4.99 -5.66 5.98 -6 7 C-8.24436655 8.44280707 -10.0559976 9.01041816 -12.6875 9.5 C-13.450625 9.665 -14.21375 9.83 -15 10 C-15.33 10.66 -15.66 11.32 -16 12 C-16.66 12 -17.32 12 -18 12 C-18.33 12.66 -18.66 13.32 -19 14 C-19.99 13.34 -20.98 12.68 -22 12 C-18.71262589 9.99287794 -15.41942172 7.99552966 -12.125 6 C-11.18785156 5.42765625 -10.25070313 4.8553125 -9.28515625 4.265625 C-8.38925781 3.72421875 -7.49335937 3.1828125 -6.5703125 2.625 C-5.74289551 2.12226563 -4.91547852 1.61953125 -4.06298828 1.1015625 C-2 0 -2 0 0 0 Z " fill="#0D1F47" transform="translate(95,22)"/>
<path d="M0 0 C0.66 0 1.32 0 2 0 C2 0.99 2 1.98 2 3 C0.35 3.33 -1.3 3.66 -3 4 C-3 3.34 -3 2.68 -3 2 C-2.01 2 -1.02 2 0 2 C0 1.34 0 0.68 0 0 Z M-6 4 C-5.01 4 -4.02 4 -3 4 C-3.33 5.98 -3.66 7.96 -4 10 C-7.3125 11.125 -7.3125 11.125 -11 12 C-11.99 11.34 -12.98 10.68 -14 10 C-13.67 9.01 -13.34 8.02 -13 7 C-9.535 6.505 -9.535 6.505 -6 6 C-6 5.34 -6 4.68 -6 4 Z " fill="#EF0616" transform="translate(148,132)"/>
<path d="M0 0 C2.9719385 1.12451727 5.33440687 2.22293791 8 4 C8 4.66 8 5.32 8 6 C7.41992188 6.31453125 6.83984375 6.6290625 6.2421875 6.953125 C1.67817073 9.45354343 -2.72116216 12.03772765 -7 15 C-7.33 14.01 -7.66 13.02 -8 12 C-7.21625 11.731875 -6.4325 11.46375 -5.625 11.1875 C-2.71885077 10.15185568 -2.71885077 10.15185568 -1 7 C-0.34 7.33 0.32 7.66 1 8 C1.33 6.02 1.66 4.04 2 2 C1.34 2 0.68 2 0 2 C0 1.34 0 0.68 0 0 Z " fill="#1647B8" transform="translate(109,120)"/>
<path d="M0 0 C0.33 0.66 0.66 1.32 1 2 C0.34 2 -0.32 2 -1 2 C-1.433125 2.928125 -1.433125 2.928125 -1.875 3.875 C-3 6 -3 6 -5 8 C-5.66 8 -6.32 8 -7 8 C-10.59336492 9.25429661 -10.59336492 9.25429661 -14 11 C-14.33 11.99 -14.66 12.98 -15 14 C-16.98 14 -18.96 14 -21 14 C-16.81185728 10.46444757 -12.3432106 7.61249231 -7.6875 4.75 C-6.94693359 4.29109375 -6.20636719 3.8321875 -5.44335938 3.359375 C-3.6306939 2.23669187 -1.81559216 1.11794394 0 0 Z " fill="#D9162A" transform="translate(133,140)"/>
<path d="M0 0 C1.65 0.33 3.3 0.66 5 1 C4.67 1.99 4.34 2.98 4 4 C4.598125 4.103125 5.19625 4.20625 5.8125 4.3125 C8.33391022 5.10494321 9.19465768 6.11943508 11 8 C13.09989652 9.17574711 13.09989652 9.17574711 15 10 C15 10.99 15 11.98 15 13 C11.37628852 11.63784946 8.08615026 10.02523511 4.75 8.0625 C3.87859375 7.55847656 3.0071875 7.05445312 2.109375 6.53515625 C0 5 0 5 -1 2 C-0.67 1.34 -0.34 0.68 0 0 Z " fill="#082977" transform="translate(48,119)"/>
<path d="M0 0 C0.66 0.66 1.32 1.32 2 2 C1.67 2.66 1.34 3.32 1 4 C2.32 3.67 3.64 3.34 5 3 C4.67 3.66 4.34 4.32 4 5 C3.34 5 2.68 5 2 5 C2 5.66 2 6.32 2 7 C3.65 7.33 5.3 7.66 7 8 C7.33 8.99 7.66 9.98 8 11 C3.02790438 9.23570801 -1.43438061 6.6060834 -6 4 C-5.67 3.01 -5.34 2.02 -5 1 C-2.625 0.375 -2.625 0.375 0 0 Z M5 1 C5.99 1.495 5.99 1.495 7 2 C6.01 2.495 6.01 2.495 5 3 C5 2.34 5 1.68 5 1 Z " fill="#061D56" transform="translate(40,112)"/>
<path d="M0 0 C0 0.66 0 1.32 0 2 C-3.46153846 5 -3.46153846 5 -6 5 C-6 5.66 -6 6.32 -6 7 C-6.99 7.495 -6.99 7.495 -8 8 C-8.33 8.99 -8.66 9.98 -9 11 C-8.01 11 -7.02 11 -6 11 C-6 11.66 -6 12.32 -6 13 C-9.42559084 11.79641403 -11.53258609 10.64107354 -14 8 C-12.04532248 6.66101601 -10.0866421 5.32870953 -8.125 4 C-7.03445312 3.2575 -5.94390625 2.515 -4.8203125 1.75 C-2 0 -2 0 0 0 Z " fill="#123C9A" transform="translate(105,75)"/>
<path d="M0 0 C0 8.25 0 16.5 0 25 C-0.33 25 -0.66 25 -1 25 C-1 20.05 -1 15.1 -1 10 C-1.99 9.67 -2.98 9.34 -4 9 C-3.67 7.68 -3.34 6.36 -3 5 C-3.66 4.67 -4.32 4.34 -5 4 C-1.125 0 -1.125 0 0 0 Z " fill="#A00E0F" transform="translate(182,110)"/>
<path d="M0 0 C2.97 1.65 5.94 3.3 9 5 C9.25 11.625 9.25 11.625 7 15 C5.375 13.375 5.375 13.375 4 11 C4.8125 7.75 4.8125 7.75 6 5 C4.68 5 3.36 5 2 5 C1.34 3.35 0.68 1.7 0 0 Z " fill="#083599" transform="translate(163,87)"/>
<path d="M0 0 C0.66 0.33 1.32 0.66 2 1 C1.34 1.66 0.68 2.32 0 3 C0.99 4.485 0.99 4.485 2 6 C-1 7 -1 7 -3.75 6.8125 C-7.01764876 7.0010182 -8.05958466 7.42583067 -10.75 9.0625 C-12.35875 10.0215625 -12.35875 10.0215625 -14 11 C-14.66 10.67 -15.32 10.34 -16 10 C-5.2 2.65306122 -5.2 2.65306122 0 0 Z " fill="#092151" transform="translate(55,45)"/>
<path d="M0 0 C-0.886875 0.53625 -1.77375 1.0725 -2.6875 1.625 C-7.01729597 4.50811058 -10.3296847 7.98905409 -12 13 C-12.66 13 -13.32 13 -14 13 C-14.8125 11.375 -14.8125 11.375 -15 9 C-11 3.33333333 -11 3.33333333 -7 2 C-6.67 1.34 -6.34 0.68 -6 0 C-2.49056604 -1.24528302 -2.49056604 -1.24528302 0 0 Z " fill="#01113E" transform="translate(44,91)"/>
<path d="M0 0 C-0.66 0.433125 -1.32 0.86625 -2 1.3125 C-2.66 1.869375 -3.32 2.42625 -4 3 C-4 3.99 -4 4.98 -4 6 C-6.25 7.125 -6.25 7.125 -9 8 C-11.3125 7.125 -11.3125 7.125 -13 6 C-13 5.34 -13 4.68 -13 4 C-11.02 4 -9.04 4 -7 4 C-6.814375 3.0409375 -6.814375 3.0409375 -6.625 2.0625 C-6.41875 1.381875 -6.2125 0.70125 -6 0 C-3.50907189 -1.24546405 -2.58919267 -0.7767578 0 0 Z " fill="#E80516" transform="translate(125,150)"/>
<path d="M0 0 C3 1 3 1 4 3 C4.58608059 10.26739927 4.58608059 10.26739927 2 13.5 C1.34 13.995 0.68 14.49 0 15 C-0.66 14.67 -1.32 14.34 -2 14 C-1.67257813 13.44828125 -1.34515625 12.8965625 -1.0078125 12.328125 C0.16787715 9.61219077 0.20248638 7.69448241 0.125 4.75 C0.10695312 3.85796875 0.08890625 2.9659375 0.0703125 2.046875 C0.04710937 1.37140625 0.02390625 0.6959375 0 0 Z " fill="#C03E4B" transform="translate(178,99)"/>
<path d="M0 0 C2.31 0.33 4.62 0.66 7 1 C5 4 5 4 2 5 C0.79117904 7.00016466 0.79117904 7.00016466 0 9 C-0.66 9 -1.32 9 -2 9 C-2.25 3.375 -2.25 3.375 0 0 Z " fill="#0644DA" transform="translate(100,128)"/>
<path d="M0 0 C1.32 0.33 2.64 0.66 4 1 C1.75944862 2.53663484 -0.49062273 4.05400704 -2.75 5.5625 C-3.38421875 6.00013672 -4.0184375 6.43777344 -4.671875 6.88867188 C-9.50498766 10.08557452 -9.50498766 10.08557452 -12.21582031 9.61694336 C-12.80459961 9.41335205 -13.39337891 9.20976074 -14 9 C-13.360625 8.896875 -12.72125 8.79375 -12.0625 8.6875 C-11.0415625 8.3471875 -11.0415625 8.3471875 -10 8 C-9.67 7.01 -9.34 6.02 -9 5 C-7.1875 4.12109375 -7.1875 4.12109375 -5 3.4375 C-2.85458962 2.79318716 -2.85458962 2.79318716 -1 2 C-0.67 1.34 -0.34 0.68 0 0 Z " fill="#BF0E1C" transform="translate(124,182)"/>
<path d="M0 0 C0 3.16785869 -0.55555175 4.28103859 -2 7 C-2.33 7.99 -2.66 8.98 -3 10 C-3.99 10 -4.98 10 -6 10 C-6.66 11.32 -7.32 12.64 -8 14 C-9.65 14 -11.3 14 -13 14 C-12.071875 13.87625 -12.071875 13.87625 -11.125 13.75 C-8.8695627 13.21428985 -8.8695627 13.21428985 -8 11.25 C-7.67 10.5075 -7.34 9.765 -7 9 C-5.69254251 7.31295807 -4.35827971 5.64639965 -3 4 C-1.99426222 2.67098936 -0.99204592 1.33926199 0 0 Z " fill="#032069" transform="translate(171,108)"/>
<path d="M0 0 C0.33 0.99 0.66 1.98 1 3 C-0.36125 3.61875 -0.36125 3.61875 -1.75 4.25 C-5.03174355 5.79728581 -5.03174355 5.79728581 -7.125 8.25 C-7.74375 8.8275 -8.3625 9.405 -9 10 C-11.25 9.75 -11.25 9.75 -13 9 C-10.57542028 6.31765765 -7.92489603 4.63143275 -4.8125 2.8125 C-3.91144531 2.28269531 -3.01039062 1.75289062 -2.08203125 1.20703125 C-1.39496094 0.80871094 -0.70789063 0.41039062 0 0 Z " fill="#071B45" transform="translate(71,35)"/>
<path d="M0 0 C1.44096586 0.42594588 2.87768712 0.86626633 4.3125 1.3125 C5.11300781 1.55613281 5.91351563 1.79976563 6.73828125 2.05078125 C9.09964573 3.04182023 10.33879993 4.08074943 12 6 C9.07120629 5.37240135 6.63904371 4.41377341 4 3 C3.67 3.66 3.34 4.32 3 5 C0.9375 6.125 0.9375 6.125 -1 7 C-1 4.37886292 -0.68707555 2.49064888 0 0 Z " fill="#072979" transform="translate(67,96)"/>
<path d="M0 0 C2.9375 0.375 2.9375 0.375 6 1 C6.33 1.66 6.66 2.32 7 3 C9.02120024 4.07594065 11.09289801 4.97847466 13.1875 5.90234375 C15 7 15 7 16 10 C12.06342758 8.56786488 8.71068644 6.69667846 5.1875 4.4375 C4.21167969 3.81746094 3.23585938 3.19742188 2.23046875 2.55859375 C1.49441406 2.04425781 0.75835937 1.52992187 0 1 C0 0.67 0 0.34 0 0 Z " fill="#133AA0" transform="translate(99,88)"/>
<path d="M0 0 C1.62566606 0.47690204 3.25051311 0.95659666 4.875 1.4375 C5.77992188 1.70433594 6.68484375 1.97117187 7.6171875 2.24609375 C10 3 10 3 12 4 C12 4.66 12 5.32 12 6 C12.66 6 13.32 6 14 6 C13.67 6.99 13.34 7.98 13 9 C10.83061859 7.69181533 8.6644848 6.37874076 6.5 5.0625 C5.87996094 4.68931641 5.25992188 4.31613281 4.62109375 3.93164062 C3.06370003 2.9818016 1.5296725 1.99386689 0 1 C0 0.67 0 0.34 0 0 Z " fill="#1446B8" transform="translate(132,108)"/>
<path d="M0 0 C0.66 0 1.32 0 2 0 C2 0.66 2 1.32 2 2 C2.66 2 3.32 2 4 2 C3.67 3.98 3.34 5.96 3 8 C2.401875 7.690625 1.80375 7.38125 1.1875 7.0625 C-1.08956772 5.89790296 -1.08956772 5.89790296 -4 5 C-4 4.34 -4 3.68 -4 3 C-2.68 2.67 -1.36 2.34 0 2 C0 1.34 0 0.68 0 0 Z " fill="#0346E3" transform="translate(107,120)"/>
<path d="M0 0 C1.98 0.495 1.98 0.495 4 1 C3.67 1.66 3.34 2.32 3 3 C3.00565066 4.43809264 3.05258256 5.87622075 3.125 7.3125 C3.19050399 11.37374714 2.54553147 13.71202185 0 17 C-0.33 16.34 -0.66 15.68 -1 15 C-0.34938905 13.32700041 0.32033324 11.66140763 1 10 C1.37593066 8.0075675 1.71979545 6.0081326 2 4 C1.34 4 0.68 4 0 4 C0 2.68 0 1.36 0 0 Z " fill="#331F48" transform="translate(176,97)"/>
<path d="M0 0 C0.33 1.65 0.66 3.3 1 5 C-1 6 -1 6 -3.375 5.3125 C-4.674375 5.1578125 -4.674375 5.1578125 -6 5 C-8.33454661 6.83358335 -8.33454661 6.83358335 -10 9 C-10 7.68 -10 6.36 -10 5 C-8.3203125 3.515625 -8.3203125 3.515625 -6.125 2.25 C-5.40570313 1.82203125 -4.68640625 1.3940625 -3.9453125 0.953125 C-2 0 -2 0 0 0 Z " fill="#042875" transform="translate(40,57)"/>
<path d="M0 0 C0.5534764 2.07553648 1 3.84365964 1 6 C-0.65 6.33 -2.3 6.66 -4 7 C-4.33 5.02 -4.66 3.04 -5 1 C-3.35 0.67 -1.7 0.34 0 0 Z " fill="#EF0414" transform="translate(143,166)"/>
<path d="M0 0 C0.66 0 1.32 0 2 0 C2.33 1.98 2.66 3.96 3 6 C2.34 6 1.68 6 1 6 C0.67 4.02 0.34 2.04 0 0 Z M-1.75 1.3125 C-0.88375 1.6528125 -0.88375 1.6528125 0 2 C-0.66 3.65 -1.32 5.3 -2 7 C-2.66 6.34 -3.32 5.68 -4 5 C-4.33 5 -4.66 5 -5 5 C-5.99 4.67 -6.98 4.34 -8 4 C-4.55384615 0.92307692 -4.55384615 0.92307692 -1.75 1.3125 Z " fill="#BB0511" transform="translate(172,119)"/>
<path d="M0 0 C0.66 0.66 1.32 1.32 2 2 C2.99 2 3.98 2 5 2 C4.67 2.99 4.34 3.98 4 5 C-3.57142857 3.14285714 -3.57142857 3.14285714 -6 0 C-3 -1 -3 -1 0 0 Z " fill="#0A3196" transform="translate(152,116)"/>
<path d="M0 0 C2.25 1.9375 2.25 1.9375 4 4 C1.36 4.33 -1.28 4.66 -4 5 C-4 3.68 -4 2.36 -4 1 C-2.25 0.25 -2.25 0.25 0 0 Z " fill="#0144E2" transform="translate(91,134)"/>
<path d="M0 0 C2.97 0.33 5.94 0.66 9 1 C6.80036434 3.19963566 6.00652461 3.57049648 3 4 C0.25 3.5625 0.25 3.5625 -2 3 C-1.34 2.01 -0.68 1.02 0 0 Z " fill="#AB0A11" transform="translate(103,191)"/>
<path d="M0 0 C1.65 0 3.3 0 5 0 C4.525625 0.61875 4.05125 1.2375 3.5625 1.875 C1.97582559 3.90705546 1.97582559 3.90705546 1 6 C-0.32 5.67 -1.64 5.34 -3 5 C-2.67 4.01 -2.34 3.02 -2 2 C-1.34 2 -0.68 2 0 2 C0 1.34 0 0.68 0 0 Z " fill="#0138C1" transform="translate(72,129)"/>
<path d="M0 0 C4.30764815 1.56641751 8.06171464 3.68336156 12 6 C12 6.33 12 6.66 12 7 C8.40048059 7.1999733 5.99348295 7.09543806 3 5 C1.25 2.375 1.25 2.375 0 0 Z " fill="#1744AC" transform="translate(89,108)"/>
<path d="M0 0 C-0.33 0.99 -0.66 1.98 -1 3 C-2.33333333 3.33333333 -3.66666667 3.66666667 -5 4 C-5.33 4.99 -5.66 5.98 -6 7 C-8.0625 8.1875 -8.0625 8.1875 -10 9 C-10.33 8.34 -10.66 7.68 -11 7 C-9.35 6.34 -7.7 5.68 -6 5 C-6 4.01 -6 3.02 -6 2 C-2.25 0 -2.25 0 0 0 Z " fill="#071D50" transform="translate(95,22)"/>
<path d="M0 0 C0.56203125 0.22558594 1.1240625 0.45117188 1.703125 0.68359375 C0.713125 0.68359375 -0.276875 0.68359375 -1.296875 0.68359375 C-1.296875 1.34359375 -1.296875 2.00359375 -1.296875 2.68359375 C-2.286875 2.68359375 -3.276875 2.68359375 -4.296875 2.68359375 C-4.296875 3.34359375 -4.296875 4.00359375 -4.296875 4.68359375 C-7.296875 6.68359375 -7.296875 6.68359375 -9.484375 6.30859375 C-10.0825 6.10234375 -10.680625 5.89609375 -11.296875 5.68359375 C-9.89135201 4.64747104 -8.47195806 3.6301445 -7.046875 2.62109375 C-6.25796875 2.05261719 -5.4690625 1.48414063 -4.65625 0.8984375 C-2.296875 -0.31640625 -2.296875 -0.31640625 0 0 Z " fill="#CE171F" transform="translate(146.296875,133.31640625)"/>
<path d="M0 0 C0.66 0.33 1.32 0.66 2 1 C1.01 1.66 0.02 2.32 -1 3 C-0.67 2.01 -0.34 1.02 0 0 Z M1 5 C0.34 5 -0.32 5 -1 5 C-1 5.66 -1 6.32 -1 7 C-2.98 6.34 -4.96 5.68 -7 5 C-7.33 5.99 -7.66 6.98 -8 8 C-8 6.68 -8 5.36 -8 4 C-4.22102349 2.9502843 -2.35080929 2.89023119 1 5 Z " fill="#031D54" transform="translate(80,31)"/>
<path d="M0 0 C0.66 0.33 1.32 0.66 2 1 C0.70519111 3.42776667 -0.35838519 4.76967674 -2.98046875 5.7109375 C-4.9738726 6.19782198 -6.98658625 6.60391861 -9 7 C-6.25604436 4.05278838 -3.61662784 1.80831392 0 0 Z " fill="#A3121E" transform="translate(99,161)"/>
<path d="M0 0 C0.6875 1.6875 0.6875 1.6875 1 4 C-0.375 6.75 -0.375 6.75 -2 9 C-2.33 9 -2.66 9 -3 9 C-3.36923077 3.46153846 -3.36923077 3.46153846 -1.5 1.125 C-1.005 0.75375 -0.51 0.3825 0 0 Z " fill="#8E0F15" transform="translate(181,141)"/>
<path d="M0 0 C-0.66 1.32 -1.32 2.64 -2 4 C-5.875 2.25 -5.875 2.25 -7 0 C-4.3333581 -1.33332095 -2.83319697 -0.67102033 0 0 Z M-9 2 C-8.34 2.33 -7.68 2.66 -7 3 C-7.99 3.66 -8.98 4.32 -10 5 C-9.67 4.01 -9.34 3.02 -9 2 Z " fill="#0435B1" transform="translate(112,75)"/>
<path d="M0 0 C2.475 0.495 2.475 0.495 5 1 C5 1.66 5 2.32 5 3 C7.475 3.99 7.475 3.99 10 5 C7 6 7 6 5.17578125 5.22265625 C3.45052083 4.1484375 1.72526042 3.07421875 0 2 C0 1.34 0 0.68 0 0 Z " fill="#091B43" transform="translate(53,86)"/>
<path d="M0 0 C0.66 0.33 1.32 0.66 2 1 C1.01 1.66 0.02 2.32 -1 3 C-1.33 3.99 -1.66 4.98 -2 6 C-3.98 6 -5.96 6 -8 6 C-5.38485683 3.87961365 -2.80362384 1.86908256 0 0 Z " fill="#C91524" transform="translate(120,148)"/>
<path d="M0 0 C0.66 0 1.32 0 2 0 C2 1.32 2 2.64 2 4 C0.35 4.33 -1.3 4.66 -3 5 C-3.66 3.68 -4.32 2.36 -5 1 C-4.01 1.33 -3.02 1.66 -2 2 C-1.34 1.34 -0.68 0.68 0 0 Z " fill="#0545DD" transform="translate(135,103)"/>
<path d="M0 0 C0.66 0 1.32 0 2 0 C2 4.95 2 9.9 2 15 C1.01 15.495 1.01 15.495 0 16 C0 10.72 0 5.44 0 0 Z " fill="#050D1A" transform="translate(211,69)"/>
<path d="M0 0 C0 0.66 0 1.32 0 2 C-2.8125 3.5625 -2.8125 3.5625 -6 5 C-6.99 4.67 -7.98 4.34 -9 4 C-6.31059578 0.90718514 -4.07621501 0 0 0 Z " fill="#A2132F" transform="translate(164,123)"/>
<path d="M0 0 C1.32 0.33 2.64 0.66 4 1 C3.67 2.32 3.34 3.64 3 5 C1.35 4.67 -0.3 4.34 -2 4 C-1.34 2.68 -0.68 1.36 0 0 Z " fill="#900F1F" transform="translate(173,114)"/>
<path d="M0 0 C0.66 0 1.32 0 2 0 C2 0.99 2 1.98 2 3 C2.66 3.66 3.32 4.32 4 5 C3.01 5.33 2.02 5.66 1 6 C0.01 5.01 -0.98 4.02 -2 3 C-1.34 2.01 -0.68 1.02 0 0 Z " fill="#06143A" transform="translate(31,109)"/>
<path d="M0 0 C1.33332095 2.6666419 0.67102033 4.16680303 0 7 C-0.66 7 -1.32 7 -2 7 C-2.33 5.02 -2.66 3.04 -3 1 C-2.01 0.67 -1.02 0.34 0 0 Z " fill="#0D2673" transform="translate(28,100)"/>
<path d="M0 0 C6.875 2.75 6.875 2.75 8 5 C5.23723823 4.47731534 2.6739124 3.89130413 0 3 C0 2.01 0 1.02 0 0 Z " fill="#134CBC" transform="translate(101,115)"/>
<path d="M0 0 C-0.33 1.32 -0.66 2.64 -1 4 C-2.98 4 -4.96 4 -7 4 C-5.53303752 1.06607504 -3.25996861 0 0 0 Z " fill="#062671" transform="translate(96,55)"/>
<path d="M0 0 C0.33 0 0.66 0 1 0 C1 4.29 1 8.58 1 13 C0.67 13 0.34 13 0 13 C0 8.71 0 4.42 0 0 Z " fill="#081024" transform="translate(212,111)"/>
<path d="" fill="#124E9D" transform="translate(0,0)"/>
<path d="" fill="#000000" transform="translate(0,0)"/>
<path d="" fill="#000000" transform="translate(0,0)"/>
</svg>
